<?xml version="1.0" standalone="no"?>
<!DOCTYPE svg PUBLIC "-//W3C//DTD SVG 20010904//EN"
 "http://www.w3.org/TR/2001/REC-SVG-20010904/DTD/svg10.dtd">
<svg version="1.0" xmlns="http://www.w3.org/2000/svg"
 width="381.000000pt" height="381.000000pt" viewBox="0 0 381.000000 381.000000"
 preserveAspectRatio="xMidYMid meet">
<metadata>
Created by potrace 1.14, written by Peter Selinger 2001-2017
</metadata>
<g transform="translate(0.000000,381.000000) scale(0.100000,-0.100000)"
fill="#000000" stroke="none">
<path d="M1296 3557 c-77 -133 -230 -397 -339 -587 -110 -190 -212 -365 -226
-390 -102 -178 -154 -268 -164 -285 -7 -10 -22 -37 -35 -58 l-23 -38 27 -47
c15 -26 190 -324 390 -663 199 -339 369 -629 378 -645 9 -16 28 -47 41 -69 14
-22 28 -46 32 -54 3 -8 21 -38 39 -68 l32 -54 20 33 c10 18 93 164 182 323 90
160 185 327 211 373 48 85 48 85 75 37 12 -22 263 -446 294 -498 11 -17 23
-39 27 -47 4 -8 30 -53 58 -100 28 -47 54 -94 58 -104 8 -19 8 -19 21 0 7 10
53 91 103 179 49 88 100 178 113 200 12 22 101 180 197 350 96 171 192 339
213 375 21 36 48 83 60 105 12 22 65 116 118 210 53 93 95 177 95 185 -1 9
-23 52 -49 95 -53 90 -64 110 -124 215 -24 41 -108 188 -188 325 -80 138 -156
270 -170 295 -14 25 -96 167 -182 315 -86 149 -164 285 -174 303 -9 17 -20 32
-24 32 -5 0 -61 -91 -125 -202 -65 -112 -124 -214 -133 -228 -8 -14 -59 -102
-113 -197 -74 -131 -101 -169 -109 -161 -7 7 -12 15 -12 19 0 3 -30 58 -66
120 -67 115 -191 329 -311 537 -35 61 -68 112 -71 112 -4 0 -70 -109 -146
-243z m346 -362 c99 -170 183 -313 187 -318 4 -4 23 20 42 53 18 33 37 60 40
60 3 0 20 -27 39 -60 27 -48 36 -58 46 -48 10 11 76 124 186 318 47 82 172
297 185 319 l15 23 12 -23 c7 -13 47 -82 88 -154 41 -71 153 -265 248 -430 95
-165 198 -343 228 -395 185 -319 193 -335 173 -355 -5 -6 -136 -235 -292 -510
-348 -616 -322 -570 -394 -699 -41 -73 -63 -103 -68 -94 -5 7 -93 157 -196
333 -103 176 -192 319 -197 319 -5 -1 -22 -27 -39 -58 -16 -30 -32 -56 -36
-56 -3 0 -20 27 -39 59 -19 33 -38 57 -42 55 -6 -4 -78 -127 -172 -295 -165
-295 -202 -358 -211 -355 -5 1 -25 29 -44 62 -19 32 -78 133 -131 224 -54 91
-173 293 -265 449 -92 156 -175 298 -185 315 -9 17 -47 82 -84 145 -58 99 -66
118 -57 138 9 20 546 952 644 1118 23 39 50 86 60 105 11 19 28 50 40 69 18
30 21 32 30 15 6 -11 91 -158 189 -329z"/>
<path d="M1795 2798 c-21 -34 -47 -79 -58 -98 -10 -19 -45 -80 -77 -135 -32
-55 -67 -116 -77 -135 -11 -19 -43 -74 -72 -122 -28 -48 -54 -93 -56 -101 -8
-20 371 -659 382 -644 5 6 22 33 37 60 24 42 46 60 46 40 0 -5 15 -32 34 -62
l33 -53 15 28 c8 16 44 80 79 142 35 61 74 129 85 150 12 21 60 107 108 190
47 84 86 155 86 158 0 4 -46 86 -102 183 -57 97 -112 192 -123 212 -68 120
-139 245 -143 249 -4 5 -13 -9 -53 -82 l-27 -49 -27 48 c-55 94 -49 92 -90 21z
m159 -143 c19 -33 83 -145 143 -250 l110 -189 -25 -46 c-13 -25 -33 -58 -42
-75 -10 -16 -33 -57 -52 -91 -18 -33 -67 -120 -108 -192 -70 -125 -75 -131
-87 -109 -6 13 -74 130 -151 259 l-139 236 95 163 c52 90 103 180 114 199 78
136 93 160 101 157 5 -1 23 -29 41 -62z"/>
<path d="M720 164 c0 -15 12 -17 72 -15 l37 1 -3 -50 c-3 -47 6 -71 22 -56 3
4 7 26 8 49 1 23 2 46 3 50 1 5 13 8 29 7 53 -4 74 0 70 13 -7 18 -238 19
-238 1z"/>
<path d="M1358 156 c-22 -24 -26 -116 -5 -116 8 0 14 15 15 37 5 71 7 73 77
73 72 0 80 -6 80 -64 1 -22 6 -41 13 -44 8 -2 12 9 12 33 0 61 13 75 73 75 29
0 58 -5 65 -12 7 -7 12 -31 12 -55 0 -30 4 -43 14 -43 9 0 14 15 14 48 2 70
-22 90 -106 89 -38 0 -66 -5 -73 -13 -9 -11 -14 -11 -25 1 -23 22 -142 16
-166 -9z"/>
<path d="M1770 158 c-20 -22 -20 -79 0 -103 17 -21 180 -22 180 -1 0 10 -15
13 -57 12 -32 -1 -69 1 -83 4 -46 11 -16 25 55 25 54 1 70 4 70 15 0 11 -17
14 -72 15 -100 0 -94 19 7 23 60 2 80 6 80 17 0 10 -19 13 -81 12 -66 0 -85
-4 -99 -19z"/>
<path d="M2001 164 c-15 -11 -21 -26 -21 -53 0 -58 21 -71 118 -71 l82 0 0 34
0 34 -70 0 c-53 0 -70 -4 -70 -14 0 -10 15 -14 57 -14 64 0 65 -13 0 -15 -69
-2 -89 9 -85 47 3 33 3 33 64 36 45 2 66 -1 77 -13 9 -8 18 -15 21 -15 9 0 7
23 -4 40 -13 21 -140 24 -169 4z"/>
<path d="M2210 130 c0 -85 6 -90 110 -90 71 0 90 3 90 14 0 11 -18 14 -81 14
-44 0 -83 3 -86 6 -4 3 -7 27 -7 53 -1 67 -26 71 -26 3z"/>
<path d="M2451 159 c-15 -16 -20 -63 -12 -111 3 -18 20 -6 23 15 3 20 9 22 63
23 74 0 85 -3 85 -27 0 -10 6 -19 13 -19 19 0 17 100 -3 121 -23 25 -146 23
-169 -2z m157 -31 c3 -16 -6 -18 -72 -18 -57 0 -76 3 -76 13 0 24 13 28 79 25
53 -2 66 -6 69 -20z"/>
<path d="M2666 161 c-2 -9 -4 -40 -4 -68 1 -38 5 -53 14 -53 10 0 14 15 14 55
l0 55 59 0 c70 0 91 -19 85 -76 -2 -29 0 -35 14 -32 25 5 19 85 -8 112 -27 28
-167 33 -174 7z"/>
<path d="M2896 172 c-3 -3 -6 -34 -6 -69 l0 -63 83 0 c69 0 87 3 100 18 22 24
22 85 0 103 -16 14 -165 23 -177 11z m162 -55 c5 -44 -9 -53 -79 -47 l-62 5
-2 38 -1 38 70 -3 c70 -3 71 -4 74 -31z"/>
<path d="M983 90 c0 -50 14 -68 24 -30 5 17 13 20 59 19 46 -1 54 -5 54 -20 0
-11 5 -19 10 -19 6 0 10 23 10 51 0 36 -4 49 -12 46 -7 -2 -12 -12 -10 -21 3
-15 -5 -17 -55 -14 -49 3 -58 6 -55 21 2 9 -3 17 -11 17 -9 0 -13 -15 -14 -50z"/>
<path d="M1172 128 c-15 -15 -15 -61 0 -76 15 -15 148 -16 148 -2 0 6 -28 10
-65 10 -36 0 -65 4 -65 10 0 5 24 8 53 7 29 -1 52 2 52 8 0 9 -16 12 -88 14
-16 1 -26 5 -22 11 3 6 35 10 71 10 36 0 64 4 64 10 0 14 -133 13 -148 -2z"/>
</g>
</svg>
